<mxfile host="Electron" modified="2023-07-26T11:07:01.906Z" agent="Mozilla/5.0 (Windows NT 10.0; Win64; x64) AppleWebKit/537.36 (KHTML, like Gecko) draw.io/21.6.5 Chrome/114.0.5735.243 Electron/25.3.1 Safari/537.36" etag="NKH0sYVxvFN1v48cYNDA" version="21.6.5" type="device">
  <diagram name="对象和类之间的关系" id="jCaJryhr8M6eM0-1dfTM">
    <mxGraphModel dx="2985" dy="1398" grid="0" gridSize="10" guides="0" tooltips="1" connect="1" arrows="0" fold="1" page="0" pageScale="1" pageWidth="827" pageHeight="1169" background="#ffffff" math="0" shadow="1">
      <root>
        <mxCell id="0" />
        <mxCell id="1" parent="0" />
        <mxCell id="F7TPWeGrjfN6PPOd-E80-7" value="" style="group;movable=0;resizable=0;rotatable=0;deletable=0;editable=0;locked=1;connectable=0;" parent="1" vertex="1" connectable="0">
          <mxGeometry x="-992" y="200" width="1174" height="780" as="geometry" />
        </mxCell>
        <mxCell id="MLkjTBWtV1qllIKsfvOt-6" value="" style="group;movable=1;resizable=1;rotatable=1;deletable=1;editable=1;locked=0;connectable=1;rounded=0;sketch=1;curveFitting=1;jiggle=2;strokeColor=none;spacing=9;labelBorderColor=none;fontColor=default;" parent="F7TPWeGrjfN6PPOd-E80-7" vertex="1" connectable="0">
          <mxGeometry x="60" y="63" width="1040" height="576" as="geometry" />
        </mxCell>
        <mxCell id="l19KTVMMG9-ZsjpJcLc6-98" value="" style="group;rounded=0;fillColor=#E6E6E6;container=0;movable=1;resizable=1;rotatable=1;deletable=1;editable=1;locked=0;connectable=1;sketch=1;curveFitting=1;jiggle=2;" parent="MLkjTBWtV1qllIKsfvOt-6" vertex="1" connectable="0">
          <mxGeometry x="560" y="99" width="480" height="350" as="geometry" />
        </mxCell>
        <mxCell id="l19KTVMMG9-ZsjpJcLc6-91" value="" style="group;fillColor=#CCE5FF;container=0;rounded=0;strokeColor=default;movable=1;resizable=1;rotatable=1;deletable=1;editable=1;locked=0;connectable=1;sketch=1;curveFitting=1;jiggle=2;" parent="MLkjTBWtV1qllIKsfvOt-6" vertex="1" connectable="0">
          <mxGeometry y="99" width="532" height="477" as="geometry" />
        </mxCell>
        <mxCell id="l19KTVMMG9-ZsjpJcLc6-90" value="" style="group;fillColor=#B3B3B3;container=0;movable=1;resizable=1;rotatable=1;deletable=1;editable=1;locked=0;connectable=1;rounded=0;sketch=1;curveFitting=1;jiggle=2;" parent="MLkjTBWtV1qllIKsfvOt-6" vertex="1" connectable="0">
          <mxGeometry x="31.99000000000001" y="249.0781563126252" width="468.0133185349612" height="283.0618261840136" as="geometry" />
        </mxCell>
        <mxCell id="l19KTVMMG9-ZsjpJcLc6-9" value="A" style="html=1;whiteSpace=wrap;hachureGap=4;fontFamily=Architects Daughter;fontSource=https%3A%2F%2Ffonts.googleapis.com%2Fcss%3Ffamily%3DArchitects%2BDaughter;fontSize=20;container=0;movable=1;resizable=1;rotatable=1;deletable=1;editable=1;locked=0;connectable=1;rounded=0;sketch=1;curveFitting=1;jiggle=2;" parent="MLkjTBWtV1qllIKsfvOt-6" vertex="1">
          <mxGeometry x="50.99000000000001" y="182.54302325581398" width="89.67272727272727" height="43.456976744186036" as="geometry" />
        </mxCell>
        <mxCell id="l19KTVMMG9-ZsjpJcLc6-10" value="B" style="html=1;whiteSpace=wrap;hachureGap=4;fontFamily=Architects Daughter;fontSource=https%3A%2F%2Ffonts.googleapis.com%2Fcss%3Ffamily%3DArchitects%2BDaughter;fontSize=20;container=0;movable=1;resizable=1;rotatable=1;deletable=1;editable=1;locked=0;connectable=1;rounded=0;sketch=1;curveFitting=1;jiggle=2;" parent="MLkjTBWtV1qllIKsfvOt-6" vertex="1">
          <mxGeometry x="372.31727272727267" y="182.54302325581398" width="89.67272727272727" height="43.456976744186036" as="geometry" />
        </mxCell>
        <mxCell id="l19KTVMMG9-ZsjpJcLc6-26" style="edgeStyle=orthogonalEdgeStyle;rounded=0;hachureGap=4;orthogonalLoop=1;jettySize=auto;html=1;exitX=1;exitY=0.5;exitDx=0;exitDy=0;fontFamily=Architects Daughter;fontSource=https%3A%2F%2Ffonts.googleapis.com%2Fcss%3Ffamily%3DArchitects%2BDaughter;fontSize=16;endArrow=open;endFill=0;startSize=14;endSize=12;movable=1;resizable=1;rotatable=1;deletable=1;editable=1;locked=0;connectable=1;sketch=1;curveFitting=1;jiggle=2;" parent="MLkjTBWtV1qllIKsfvOt-6" source="l19KTVMMG9-ZsjpJcLc6-9" target="l19KTVMMG9-ZsjpJcLc6-10" edge="1">
          <mxGeometry relative="1" as="geometry" />
        </mxCell>
        <mxCell id="l19KTVMMG9-ZsjpJcLc6-13" value="关联" style="text;align=center;fontStyle=1;verticalAlign=middle;spacingLeft=3;spacingRight=3;strokeColor=none;rotatable=1;points=[[0,0.5],[1,0.5]];portConstraint=eastwest;html=1;fontSize=20;fontFamily=Architects Daughter;container=0;movable=1;resizable=1;deletable=1;editable=1;locked=0;connectable=1;rounded=0;sketch=1;curveFitting=1;jiggle=2;" parent="MLkjTBWtV1qllIKsfvOt-6" vertex="1">
          <mxGeometry x="217.88090909090909" y="172.61" width="99.63636363636363" height="32.28232558139535" as="geometry" />
        </mxCell>
        <mxCell id="l19KTVMMG9-ZsjpJcLc6-82" value="" style="rounded=0;whiteSpace=wrap;html=1;hachureGap=4;fontFamily=Architects Daughter;fontSource=https%3A%2F%2Ffonts.googleapis.com%2Fcss%3Ffamily%3DArchitects%2BDaughter;fontSize=20;fillColor=#66B2FF;container=0;movable=1;resizable=1;rotatable=1;deletable=1;editable=1;locked=0;connectable=1;sketch=1;curveFitting=1;jiggle=2;" parent="MLkjTBWtV1qllIKsfvOt-6" vertex="1">
          <mxGeometry x="31.99000000000001" y="249.0781563126252" width="468.0133185349612" height="283.0618261840136" as="geometry" />
        </mxCell>
        <mxCell id="l19KTVMMG9-ZsjpJcLc6-86" value="" style="group;fillColor=#666666;container=0;movable=1;resizable=1;rotatable=1;deletable=1;editable=1;locked=0;connectable=1;rounded=0;sketch=1;curveFitting=1;jiggle=2;" parent="MLkjTBWtV1qllIKsfvOt-6" vertex="1" connectable="0">
          <mxGeometry x="60.962253052164215" y="400.17877527206304" width="420.0976692563818" height="95.69705867431067" as="geometry" />
        </mxCell>
        <mxCell id="l19KTVMMG9-ZsjpJcLc6-58" value="A" style="html=1;whiteSpace=wrap;hachureGap=4;fontFamily=Architects Daughter;fontSource=https%3A%2F%2Ffonts.googleapis.com%2Fcss%3Ffamily%3DArchitects%2BDaughter;fontSize=20;container=0;movable=1;resizable=1;rotatable=1;deletable=1;editable=1;locked=0;connectable=1;rounded=0;sketch=1;curveFitting=1;jiggle=2;" parent="MLkjTBWtV1qllIKsfvOt-6" vertex="1">
          <mxGeometry x="67.64815760266367" y="303.47437913802275" width="80.23085460599334" height="35.25681109053551" as="geometry" />
        </mxCell>
        <mxCell id="l19KTVMMG9-ZsjpJcLc6-59" value="B" style="html=1;whiteSpace=wrap;hachureGap=4;fontFamily=Architects Daughter;fontSource=https%3A%2F%2Ffonts.googleapis.com%2Fcss%3Ffamily%3DArchitects%2BDaughter;fontSize=20;container=0;movable=1;resizable=1;rotatable=1;deletable=1;editable=1;locked=0;connectable=1;rounded=0;sketch=1;curveFitting=1;jiggle=2;" parent="MLkjTBWtV1qllIKsfvOt-6" vertex="1">
          <mxGeometry x="355.1420532741398" y="303.47437913802275" width="80.23085460599334" height="35.25681109053551" as="geometry" />
        </mxCell>
        <mxCell id="l19KTVMMG9-ZsjpJcLc6-60" value="聚合" style="text;align=center;fontStyle=1;verticalAlign=middle;spacingLeft=3;spacingRight=3;strokeColor=none;rotatable=1;points=[[0,0.5],[1,0.5]];portConstraint=eastwest;fontSize=20;fontFamily=Architects Daughter;html=1;container=0;movable=1;resizable=1;deletable=1;editable=1;locked=0;connectable=1;rounded=0;sketch=1;curveFitting=1;jiggle=2;" parent="MLkjTBWtV1qllIKsfvOt-6" vertex="1">
          <mxGeometry x="215.85237513873471" y="291.3863296212678" width="89.14539400665927" height="26.190773952969234" as="geometry" />
        </mxCell>
        <mxCell id="l19KTVMMG9-ZsjpJcLc6-61" value="" style="endArrow=open;html=1;endSize=12;startArrow=diamond;startSize=14;startFill=0;edgeStyle=orthogonalEdgeStyle;align=left;verticalAlign=bottom;rounded=0;hachureGap=4;fontFamily=Architects Daughter;fontSource=https%3A%2F%2Ffonts.googleapis.com%2Fcss%3Ffamily%3DArchitects%2BDaughter;fontSize=16;entryX=0;entryY=0.5;entryDx=0;entryDy=0;exitX=1;exitY=0.5;exitDx=0;exitDy=0;endFill=0;movable=1;resizable=1;rotatable=1;deletable=1;editable=1;locked=0;connectable=1;sketch=1;curveFitting=1;jiggle=2;" parent="MLkjTBWtV1qllIKsfvOt-6" source="l19KTVMMG9-ZsjpJcLc6-58" target="l19KTVMMG9-ZsjpJcLc6-59" edge="1">
          <mxGeometry x="0.425" y="80" relative="1" as="geometry">
            <mxPoint x="144.8146392896781" y="324.62846579234406" as="sourcePoint" />
            <mxPoint x="299.7047613762486" y="314.55509119504825" as="targetPoint" />
            <mxPoint as="offset" />
          </mxGeometry>
        </mxCell>
        <mxCell id="l19KTVMMG9-ZsjpJcLc6-81" value="" style="rounded=0;whiteSpace=wrap;html=1;hachureGap=4;fontFamily=Architects Daughter;fontSource=https%3A%2F%2Ffonts.googleapis.com%2Fcss%3Ffamily%3DArchitects%2BDaughter;fontSize=20;fillColor=#0066CC;container=0;movable=1;resizable=1;rotatable=1;deletable=1;editable=1;locked=0;connectable=1;fillStyle=auto;sketch=1;curveFitting=1;jiggle=2;" parent="MLkjTBWtV1qllIKsfvOt-6" vertex="1">
          <mxGeometry x="60.962253052164215" y="400.17877527206304" width="420.0976692563818" height="95.69705867431067" as="geometry" />
        </mxCell>
        <mxCell id="l19KTVMMG9-ZsjpJcLc6-64" value="A" style="html=1;whiteSpace=wrap;hachureGap=4;fontFamily=Architects Daughter;fontSource=https%3A%2F%2Ffonts.googleapis.com%2Fcss%3Ffamily%3DArchitects%2BDaughter;fontSize=20;container=0;movable=1;resizable=1;rotatable=1;deletable=1;editable=1;locked=0;connectable=1;rounded=0;sketch=1;curveFitting=1;jiggle=2;" parent="MLkjTBWtV1qllIKsfvOt-6" vertex="1">
          <mxGeometry x="83.24860155382908" y="430.3988990639506" width="80.23085460599334" height="35.25681109053551" as="geometry" />
        </mxCell>
        <mxCell id="l19KTVMMG9-ZsjpJcLc6-65" value="B" style="html=1;whiteSpace=wrap;hachureGap=4;fontFamily=Architects Daughter;fontSource=https%3A%2F%2Ffonts.googleapis.com%2Fcss%3Ffamily%3DArchitects%2BDaughter;fontSize=20;container=0;movable=1;resizable=1;rotatable=1;deletable=1;editable=1;locked=0;connectable=1;rounded=0;sketch=1;curveFitting=1;jiggle=2;" parent="MLkjTBWtV1qllIKsfvOt-6" vertex="1">
          <mxGeometry x="370.7424972253052" y="430.3988990639506" width="80.23085460599334" height="35.25681109053551" as="geometry" />
        </mxCell>
        <mxCell id="l19KTVMMG9-ZsjpJcLc6-72" style="edgeStyle=orthogonalEdgeStyle;rounded=0;hachureGap=4;orthogonalLoop=1;jettySize=auto;html=1;entryX=0;entryY=0.5;entryDx=0;entryDy=0;fontFamily=Architects Daughter;fontSource=https%3A%2F%2Ffonts.googleapis.com%2Fcss%3Ffamily%3DArchitects%2BDaughter;fontSize=16;startArrow=diamondThin;startFill=1;targetPerimeterSpacing=6;sourcePerimeterSpacing=0;strokeWidth=1;strokeColor=default;endSize=12;startSize=14;movable=1;resizable=1;rotatable=1;deletable=1;editable=1;locked=0;connectable=1;sketch=1;curveFitting=1;jiggle=2;" parent="MLkjTBWtV1qllIKsfvOt-6" source="l19KTVMMG9-ZsjpJcLc6-64" target="l19KTVMMG9-ZsjpJcLc6-65" edge="1">
          <mxGeometry relative="1" as="geometry" />
        </mxCell>
        <mxCell id="l19KTVMMG9-ZsjpJcLc6-66" value="组合" style="text;align=center;fontStyle=1;verticalAlign=middle;spacingLeft=3;spacingRight=3;strokeColor=none;rotatable=1;points=[[0,0.5],[1,0.5]];portConstraint=eastwest;fontSize=20;fontFamily=Architects Daughter;html=1;container=0;movable=1;resizable=1;deletable=1;editable=1;locked=0;connectable=1;rounded=0;sketch=1;curveFitting=1;jiggle=2;" parent="MLkjTBWtV1qllIKsfvOt-6" vertex="1">
          <mxGeometry x="231.45281908990012" y="418.3108495471955" width="89.14539400665927" height="26.190773952969234" as="geometry" />
        </mxCell>
        <mxCell id="l19KTVMMG9-ZsjpJcLc6-97" value="" style="rounded=0;whiteSpace=wrap;html=1;hachureGap=4;fontFamily=Architects Daughter;fontSource=https%3A%2F%2Ffonts.googleapis.com%2Fcss%3Ffamily%3DArchitects%2BDaughter;fontSize=20;fillColor=#cfe4fe;container=0;movable=1;resizable=1;rotatable=1;deletable=1;editable=1;locked=0;connectable=1;sketch=1;curveFitting=1;jiggle=2;" parent="MLkjTBWtV1qllIKsfvOt-6" vertex="1">
          <mxGeometry x="560" y="99" width="480" height="350" as="geometry" />
        </mxCell>
        <mxCell id="l19KTVMMG9-ZsjpJcLc6-95" value="" style="group;fillColor=#808080;container=0;movable=1;resizable=1;rotatable=1;deletable=1;editable=1;locked=0;connectable=1;rounded=0;sketch=1;curveFitting=1;jiggle=2;" parent="MLkjTBWtV1qllIKsfvOt-6" vertex="1" connectable="0">
          <mxGeometry x="610" y="289" width="380" height="80" as="geometry" />
        </mxCell>
        <mxCell id="l19KTVMMG9-ZsjpJcLc6-31" value="A" style="html=1;whiteSpace=wrap;hachureGap=4;fontFamily=Architects Daughter;fontSource=https%3A%2F%2Ffonts.googleapis.com%2Fcss%3Ffamily%3DArchitects%2BDaughter;fontSize=20;container=0;movable=1;resizable=1;rotatable=1;deletable=1;editable=1;locked=0;connectable=1;rounded=0;sketch=1;curveFitting=1;jiggle=2;" parent="MLkjTBWtV1qllIKsfvOt-6" vertex="1">
          <mxGeometry x="635" y="176" width="72" height="35" as="geometry" />
        </mxCell>
        <mxCell id="l19KTVMMG9-ZsjpJcLc6-32" value="B" style="html=1;whiteSpace=wrap;hachureGap=4;fontFamily=Architects Daughter;fontSource=https%3A%2F%2Ffonts.googleapis.com%2Fcss%3Ffamily%3DArchitects%2BDaughter;fontSize=20;container=0;movable=1;resizable=1;rotatable=1;deletable=1;editable=1;locked=0;connectable=1;rounded=0;sketch=1;curveFitting=1;jiggle=2;" parent="MLkjTBWtV1qllIKsfvOt-6" vertex="1">
          <mxGeometry x="893" y="176" width="72" height="35" as="geometry" />
        </mxCell>
        <mxCell id="l19KTVMMG9-ZsjpJcLc6-33" value="实现" style="text;align=center;fontStyle=1;verticalAlign=middle;spacingLeft=3;spacingRight=3;strokeColor=none;rotatable=1;points=[[0,0.5],[1,0.5]];portConstraint=eastwest;fontSize=20;fontFamily=Architects Daughter;fontSource=https%3A%2F%2Ffonts.googleapis.com%2Fcss%3Ffamily%3DArchitects%2BDaughter;container=0;movable=1;resizable=1;deletable=1;editable=1;locked=0;connectable=1;rounded=0;sketch=1;curveFitting=1;jiggle=2;" parent="MLkjTBWtV1qllIKsfvOt-6" vertex="1">
          <mxGeometry x="778" y="159" width="60" height="36" as="geometry" />
        </mxCell>
        <mxCell id="l19KTVMMG9-ZsjpJcLc6-34" value="" style="endArrow=block;html=1;endSize=12;startArrow=none;startSize=14;startFill=0;edgeStyle=orthogonalEdgeStyle;align=left;verticalAlign=bottom;rounded=0;hachureGap=4;fontFamily=Architects Daughter;fontSource=https%3A%2F%2Ffonts.googleapis.com%2Fcss%3Ffamily%3DArchitects%2BDaughter;fontSize=16;entryX=0;entryY=0.5;entryDx=0;entryDy=0;exitX=1;exitY=0.5;exitDx=0;exitDy=0;dashed=1;dashPattern=12 12;endFill=0;movable=1;resizable=1;rotatable=1;deletable=1;editable=1;locked=0;connectable=1;sketch=1;curveFitting=1;jiggle=2;" parent="MLkjTBWtV1qllIKsfvOt-6" source="l19KTVMMG9-ZsjpJcLc6-31" target="l19KTVMMG9-ZsjpJcLc6-32" edge="1">
          <mxGeometry x="0.425" y="80" relative="1" as="geometry">
            <mxPoint x="704.25" y="197" as="sourcePoint" />
            <mxPoint x="843.25" y="187" as="targetPoint" />
            <mxPoint as="offset" />
          </mxGeometry>
        </mxCell>
        <mxCell id="l19KTVMMG9-ZsjpJcLc6-94" value="" style="rounded=0;whiteSpace=wrap;html=1;hachureGap=4;fontFamily=Architects Daughter;fontSource=https%3A%2F%2Ffonts.googleapis.com%2Fcss%3Ffamily%3DArchitects%2BDaughter;fontSize=20;fillColor=#75b0fd;container=0;movable=1;resizable=1;rotatable=1;deletable=1;editable=1;locked=0;connectable=1;strokeColor=default;sketch=1;curveFitting=1;jiggle=2;" parent="MLkjTBWtV1qllIKsfvOt-6" vertex="1">
          <mxGeometry x="610" y="289" width="380" height="80" as="geometry" />
        </mxCell>
        <mxCell id="l19KTVMMG9-ZsjpJcLc6-36" value="A" style="html=1;whiteSpace=wrap;hachureGap=4;fontFamily=Architects Daughter;fontSource=https%3A%2F%2Ffonts.googleapis.com%2Fcss%3Ffamily%3DArchitects%2BDaughter;fontSize=20;container=0;movable=1;resizable=1;rotatable=1;deletable=1;editable=1;locked=0;connectable=1;rounded=0;sketch=1;curveFitting=1;jiggle=2;" parent="MLkjTBWtV1qllIKsfvOt-6" vertex="1">
          <mxGeometry x="630" y="311" width="72" height="35" as="geometry" />
        </mxCell>
        <mxCell id="l19KTVMMG9-ZsjpJcLc6-37" value="B" style="html=1;whiteSpace=wrap;hachureGap=4;fontFamily=Architects Daughter;fontSource=https%3A%2F%2Ffonts.googleapis.com%2Fcss%3Ffamily%3DArchitects%2BDaughter;fontSize=20;container=0;movable=1;resizable=1;rotatable=1;deletable=1;editable=1;locked=0;connectable=1;rounded=0;sketch=1;curveFitting=1;jiggle=2;" parent="MLkjTBWtV1qllIKsfvOt-6" vertex="1">
          <mxGeometry x="888" y="311" width="72" height="35" as="geometry" />
        </mxCell>
        <mxCell id="l19KTVMMG9-ZsjpJcLc6-38" value="继承" style="text;align=center;fontStyle=1;verticalAlign=middle;spacingLeft=3;spacingRight=3;strokeColor=none;rotatable=1;points=[[0,0.5],[1,0.5]];portConstraint=eastwest;fontSize=20;fontFamily=Architects Daughter;html=1;container=0;movable=1;resizable=1;deletable=1;editable=1;locked=0;connectable=1;rounded=0;sketch=1;curveFitting=1;jiggle=2;" parent="MLkjTBWtV1qllIKsfvOt-6" vertex="1">
          <mxGeometry x="763" y="299" width="80" height="26" as="geometry" />
        </mxCell>
        <mxCell id="l19KTVMMG9-ZsjpJcLc6-39" value="" style="endArrow=block;html=1;endSize=12;startArrow=none;startSize=14;startFill=0;edgeStyle=orthogonalEdgeStyle;align=left;verticalAlign=bottom;rounded=0;hachureGap=4;fontFamily=Architects Daughter;fontSource=https%3A%2F%2Ffonts.googleapis.com%2Fcss%3Ffamily%3DArchitects%2BDaughter;fontSize=16;entryX=0;entryY=0.5;entryDx=0;entryDy=0;exitX=1;exitY=0.5;exitDx=0;exitDy=0;endFill=0;movable=1;resizable=1;rotatable=1;deletable=1;editable=1;locked=0;connectable=1;sketch=1;curveFitting=1;jiggle=2;" parent="MLkjTBWtV1qllIKsfvOt-6" source="l19KTVMMG9-ZsjpJcLc6-36" target="l19KTVMMG9-ZsjpJcLc6-37" edge="1">
          <mxGeometry x="0.425" y="80" relative="1" as="geometry">
            <mxPoint x="699.25" y="332" as="sourcePoint" />
            <mxPoint x="838.25" y="322" as="targetPoint" />
            <mxPoint as="offset" />
          </mxGeometry>
        </mxCell>
        <mxCell id="MLkjTBWtV1qllIKsfvOt-5" value="" style="group;movable=1;resizable=1;rotatable=1;deletable=1;editable=1;locked=0;connectable=1;rounded=0;sketch=1;curveFitting=1;jiggle=2;" parent="MLkjTBWtV1qllIKsfvOt-6" vertex="1" connectable="0">
          <mxGeometry x="340" width="429" height="54" as="geometry" />
        </mxCell>
        <mxCell id="l19KTVMMG9-ZsjpJcLc6-4" value="A" style="html=1;whiteSpace=wrap;hachureGap=4;fontFamily=Architects Daughter;fontSource=https%3A%2F%2Ffonts.googleapis.com%2Fcss%3Ffamily%3DArchitects%2BDaughter;fontSize=20;shadow=1;movable=1;resizable=1;rotatable=1;deletable=1;editable=1;locked=0;connectable=1;container=0;rounded=0;sketch=1;curveFitting=1;jiggle=2;" parent="MLkjTBWtV1qllIKsfvOt-5" vertex="1">
          <mxGeometry y="4" width="110" height="50" as="geometry" />
        </mxCell>
        <mxCell id="l19KTVMMG9-ZsjpJcLc6-5" value="B" style="html=1;whiteSpace=wrap;hachureGap=4;fontFamily=Architects Daughter;fontSource=https%3A%2F%2Ffonts.googleapis.com%2Fcss%3Ffamily%3DArchitects%2BDaughter;fontSize=20;shadow=1;movable=1;resizable=1;rotatable=1;deletable=1;editable=1;locked=0;connectable=1;container=0;rounded=0;sketch=1;curveFitting=1;jiggle=2;" parent="MLkjTBWtV1qllIKsfvOt-5" vertex="1">
          <mxGeometry x="319" y="4" width="110" height="50" as="geometry" />
        </mxCell>
        <mxCell id="l19KTVMMG9-ZsjpJcLc6-6" style="edgeStyle=orthogonalEdgeStyle;rounded=0;hachureGap=4;orthogonalLoop=1;jettySize=auto;html=1;entryX=0;entryY=0.5;entryDx=0;entryDy=0;fontFamily=Architects Daughter;fontSource=https%3A%2F%2Ffonts.googleapis.com%2Fcss%3Ffamily%3DArchitects%2BDaughter;fontSize=16;dashed=1;dashPattern=12 12;shadow=1;movable=1;resizable=1;rotatable=1;deletable=1;editable=1;locked=0;connectable=1;sketch=1;curveFitting=1;jiggle=2;" parent="MLkjTBWtV1qllIKsfvOt-5" source="l19KTVMMG9-ZsjpJcLc6-4" target="l19KTVMMG9-ZsjpJcLc6-5" edge="1">
          <mxGeometry relative="1" as="geometry" />
        </mxCell>
        <mxCell id="l19KTVMMG9-ZsjpJcLc6-7" value="依赖" style="text;align=center;fontStyle=1;verticalAlign=middle;spacingLeft=3;spacingRight=3;strokeColor=none;rotatable=1;points=[[0,0.5],[1,0.5]];portConstraint=eastwest;html=1;fontSize=20;fontFamily=Architects Daughter;shadow=1;movable=1;resizable=1;deletable=1;editable=1;locked=0;connectable=1;container=0;rounded=0;sketch=1;curveFitting=1;jiggle=2;" parent="MLkjTBWtV1qllIKsfvOt-5" vertex="1">
          <mxGeometry x="177" width="80" height="26" as="geometry" />
        </mxCell>
        <mxCell id="F7TPWeGrjfN6PPOd-E80-2" value="" style="shape=card;whiteSpace=wrap;html=1;sketch=1;hachureGap=4;jiggle=2;curveFitting=1;fontFamily=Architects Daughter;fontSource=https%3A%2F%2Ffonts.googleapis.com%2Fcss%3Ffamily%3DArchitects%2BDaughter;fontSize=20;fillColor=none;size=85;movable=1;resizable=1;rotatable=1;deletable=1;editable=1;locked=0;connectable=1;" parent="F7TPWeGrjfN6PPOd-E80-7" vertex="1">
          <mxGeometry width="1174" height="780" as="geometry" />
        </mxCell>
        <mxCell id="F7TPWeGrjfN6PPOd-E80-6" value="对象和类之间的关系：从弱到强" style="text;strokeColor=none;align=center;fillColor=none;html=1;verticalAlign=middle;whiteSpace=wrap;rounded=0;fontSize=20;fontFamily=Architects Daughter;movable=1;resizable=1;rotatable=1;deletable=1;editable=1;locked=0;connectable=1;" parent="F7TPWeGrjfN6PPOd-E80-7" vertex="1">
          <mxGeometry x="462" y="716" width="434" height="30" as="geometry" />
        </mxCell>
      </root>
    </mxGraphModel>
  </diagram>
</mxfile>
